<svg id="visual" viewBox="0 0 900 600" width="900" height="600" xmlns="http://www.w3.org/2000/svg" xmlns:xlink="http://www.w3.org/1999/xlink" version="1.1"><rect x="0" y="0" width="900" height="600" fill="#6C00FF"></rect><path d="M0 413L30 421.5C60 430 120 447 180 447.2C240 447.3 300 430.7 360 419.3C420 408 480 402 540 410.7C600 419.3 660 442.7 720 454.2C780 465.7 840 465.3 870 465.2L900 465L900 601L870 601C840 601 780 601 720 601C660 601 600 601 540 601C480 601 420 601 360 601C300 601 240 601 180 601C120 601 60 601 30 601L0 601Z" fill="#ff6bd6"></path><path d="M0 509L30 508.8C60 508.7 120 508.3 180 511.8C240 515.3 300 522.7 360 512.8C420 503 480 476 540 463.2C600 450.3 660 451.7 720 454.2C780 456.7 840 460.3 870 462.2L900 464L900 601L870 601C840 601 780 601 720 601C660 601 600 601 540 601C480 601 420 601 360 601C300 601 240 601 180 601C120 601 60 601 30 601L0 601Z" fill="#f141e7"></path><path d="M0 499L30 502.7C60 506.3 120 513.7 180 514.8C240 516 300 511 360 518.2C420 525.3 480 544.7 540 547.7C600 550.7 660 537.3 720 536.7C780 536 840 548 870 554L900 560L900 601L870 601C840 601 780 601 720 601C660 601 600 601 540 601C480 601 420 601 360 601C300 601 240 601 180 601C120 601 60 601 30 601L0 601Z" fill="#d400ff"></path></svg>